<svg width="472" height="265" viewBox="0 0 472 265" fill="none" xmlns="http://www.w3.org/2000/svg">
<path d="M73.3 27.82V91H57.91V64.99H33.97V91H18.58V27.82H33.97V52.57H57.91V27.82H73.3ZM92.1501 35.56C89.4501 35.56 87.2301 34.78 85.4901 33.22C83.8101 31.6 82.9701 29.62 82.9701 27.28C82.9701 24.88 83.8101 22.9 85.4901 21.34C87.2301 19.72 89.4501 18.91 92.1501 18.91C94.7901 18.91 96.9501 19.72 98.6301 21.34C100.37 22.9 101.24 24.88 101.24 27.28C101.24 29.62 100.37 31.6 98.6301 33.22C96.9501 34.78 94.7901 35.56 92.1501 35.56ZM99.8001 40.78V91H84.4101V40.78H99.8001ZM131.203 25.57L129.403 68.68H116.353L114.553 25.57H131.203ZM123.103 91.72C120.403 91.72 118.183 90.94 116.443 89.38C114.763 87.76 113.923 85.78 113.923 83.44C113.923 81.04 114.763 79.03 116.443 77.41C118.183 75.79 120.403 74.98 123.103 74.98C125.743 74.98 127.903 75.79 129.583 77.41C131.323 79.03 132.193 81.04 132.193 83.44C132.193 85.78 131.323 87.76 129.583 89.38C127.903 90.94 125.743 91.72 123.103 91.72ZM180.659 27.82V91H165.269V27.82H180.659ZM195.322 27.82H211.072L200.992 51.94H190.642L195.322 27.82ZM284.193 40.24C290.433 40.24 295.383 42.13 299.043 45.91C302.763 49.69 304.623 54.94 304.623 61.66V91H289.323V63.73C289.323 60.49 288.453 58 286.713 56.26C285.033 54.46 282.693 53.56 279.693 53.56C276.693 53.56 274.323 54.46 272.583 56.26C270.903 58 270.063 60.49 270.063 63.73V91H254.763V63.73C254.763 60.49 253.893 58 252.153 56.26C250.473 54.46 248.133 53.56 245.133 53.56C242.133 53.56 239.763 54.46 238.023 56.26C236.343 58 235.503 60.49 235.503 63.73V91H220.113V40.78H235.503V47.08C237.063 44.98 239.103 43.33 241.623 42.13C244.143 40.87 246.993 40.24 250.173 40.24C253.953 40.24 257.313 41.05 260.253 42.67C263.253 44.29 265.593 46.6 267.273 49.6C269.013 46.84 271.383 44.59 274.383 42.85C277.383 41.11 280.653 40.24 284.193 40.24Z" fill="#34B0CB"/>
<path d="M94 217.009C111.666 221.547 143.5 155.11 134 141.966C124.5 128.822 108.937 176.542 106.288 198.395C101.267 239.802 145.578 211.687 151.96 202.612C159.798 191.466 165.5 185.966 167.5 170.28C169.796 152.275 147.975 170.209 143.5 185.966C139.673 195.987 142.775 214.73 151.96 218.814C161.145 222.898 185.829 216.381 193.5 202.612M193.5 202.612C204.667 182.57 227.5 144.881 232.5 172.549C228.561 150.749 213.551 169.523 201.899 188.27M193.5 202.612C195.869 198.361 198.762 193.316 201.899 188.27M200 204.381C201.5 184.881 212 142.24 183.5 172.549C205.387 149.273 204.273 169.02 201.899 188.27M200 204.381C199.01 217.259 210.5 228.381 229.5 198.395M200 204.381C200.349 199.856 201.181 194.086 201.899 188.27M292.5 195.509C329 132.009 313 75.009 267 155.11C243.5 211.61 263.5 220.152 276.5 213.11C288.5 206.61 291.001 193.61 279 189.009C290.001 191.509 289.7 201.409 292.5 221.009C292.5 227.009 299.2 236.309 306 235.509M321 170.28C300 233.807 338.5 218.814 350 170.28C342.667 186.783 338.9 204.589 348.5 209.789C358.1 214.989 362.333 202.133 371 185.966L377 170.28C370.333 184.95 369 213.366 385 210.966C401 208.566 407 197.009 410 189.009M410 189.009C419.5 173.175 430.5 161.466 437.5 177.466M410 189.009C417.688 168.509 400.5 160.74 392.5 176M410 189.009C407.5 221.009 423 220.852 442 198.395M41.5 217.009C79.6455 84.9409 97.1465 70.5866 78.2333 192.789M94 244.966C84.4 242.966 75 229.575 75 217.966C75 208.966 77.0659 200.332 78.2333 192.789M13 186.289C29 194.395 63.5 194.395 78.2333 192.789" stroke="#0DB5A1" stroke-width="14" stroke-linecap="round" stroke-linejoin="round"/>
<ellipse cx="382.5" cy="147" rx="9.5" ry="9" fill="#0DB5A1"/>
</svg>