<svg width="561" height="73" viewBox="0 0 561 73" fill="none" xmlns="http://www.w3.org/2000/svg">
<path d="M53.7 24.4C53.7 28.4667 52.7667 32.2 50.9 35.6C49.0333 38.9333 46.1667 41.6333 42.3 43.7C38.4333 45.7667 33.6333 46.8 27.9 46.8H17.3V72H0.2V1.8H27.9C33.5 1.8 38.2333 2.76666 42.1 4.7C45.9667 6.63333 48.8667 9.29999 50.8 12.7C52.7333 16.1 53.7 20 53.7 24.4ZM26.6 33.2C29.8667 33.2 32.3 32.4333 33.9 30.9C35.5 29.3667 36.3 27.2 36.3 24.4C36.3 21.6 35.5 19.4333 33.9 17.9C32.3 16.3667 29.8667 15.6 26.6 15.6H17.3V33.2H26.6ZM106.402 72L91.8023 45.5H87.7023V72H70.6023V1.8H99.3023C104.836 1.8 109.536 2.76666 113.402 4.7C117.336 6.63333 120.269 9.29999 122.202 12.7C124.136 16.0333 125.102 19.7667 125.102 23.9C125.102 28.5667 123.769 32.7333 121.102 36.4C118.502 40.0667 114.636 42.6667 109.502 44.2L125.702 72H106.402ZM87.7023 33.4H98.3023C101.436 33.4 103.769 32.6333 105.302 31.1C106.902 29.5667 107.702 27.4 107.702 24.6C107.702 21.9333 106.902 19.8333 105.302 18.3C103.769 16.7667 101.436 16 98.3023 16H87.7023V33.4ZM177.037 72.7C170.437 72.7 164.37 71.1667 158.837 68.1C153.37 65.0333 149.003 60.7667 145.737 55.3C142.537 49.7667 140.937 43.5667 140.937 36.7C140.937 29.8333 142.537 23.6667 145.737 18.2C149.003 12.7333 153.37 8.46667 158.837 5.4C164.37 2.33333 170.437 0.799999 177.037 0.799999C183.637 0.799999 189.67 2.33333 195.137 5.4C200.67 8.46667 205.003 12.7333 208.137 18.2C211.337 23.6667 212.937 29.8333 212.937 36.7C212.937 43.5667 211.337 49.7667 208.137 55.3C204.937 60.7667 200.603 65.0333 195.137 68.1C189.67 71.1667 183.637 72.7 177.037 72.7ZM177.037 57.1C182.637 57.1 187.103 55.2333 190.437 51.5C193.837 47.7667 195.537 42.8333 195.537 36.7C195.537 30.5 193.837 25.5667 190.437 21.9C187.103 18.1667 182.637 16.3 177.037 16.3C171.37 16.3 166.837 18.1333 163.437 21.8C160.103 25.4667 158.437 30.4333 158.437 36.7C158.437 42.9 160.103 47.8667 163.437 51.6C166.837 55.2667 171.37 57.1 177.037 57.1ZM274.45 1.8V49.6C274.45 57 272.35 62.7 268.15 66.7C264.017 70.7 258.417 72.7 251.35 72.7C243.95 72.7 238.017 70.6 233.55 66.4C229.083 62.2 226.85 56.2333 226.85 48.5H243.85C243.85 51.4333 244.45 53.6667 245.65 55.2C246.85 56.6667 248.583 57.4 250.85 57.4C252.917 57.4 254.517 56.7333 255.65 55.4C256.783 54.0667 257.35 52.1333 257.35 49.6V1.8H274.45ZM313.363 15.5V29.7H336.263V42.9H313.363V58.3H339.263V72H296.263V1.8H339.263V15.5H313.363ZM355.464 36.8C355.464 29.8667 356.964 23.7 359.964 18.3C362.964 12.8333 367.131 8.6 372.464 5.6C377.864 2.53333 383.964 0.999996 390.764 0.999996C399.097 0.999996 406.231 3.2 412.164 7.59999C418.097 12 422.064 18 424.064 25.6H405.264C403.864 22.6667 401.864 20.4333 399.264 18.9C396.731 17.3667 393.831 16.6 390.564 16.6C385.297 16.6 381.031 18.4333 377.764 22.1C374.497 25.7667 372.864 30.6667 372.864 36.8C372.864 42.9333 374.497 47.8333 377.764 51.5C381.031 55.1667 385.297 57 390.564 57C393.831 57 396.731 56.2333 399.264 54.7C401.864 53.1667 403.864 50.9333 405.264 48H424.064C422.064 55.6 418.097 61.6 412.164 66C406.231 70.3333 399.097 72.5 390.764 72.5C383.964 72.5 377.864 71 372.464 68C367.131 64.9333 362.964 60.7 359.964 55.3C356.964 49.9 355.464 43.7333 355.464 36.8ZM493.036 1.8V15.5H474.436V72H457.336V15.5H438.736V1.8H493.036ZM535.018 72.7C529.885 72.7 525.285 71.8667 521.218 70.2C517.151 68.5333 513.885 66.0667 511.418 62.8C509.018 59.5333 507.751 55.6 507.618 51H525.818C526.085 53.6 526.985 55.6 528.518 57C530.051 58.3333 532.051 59 534.518 59C537.051 59 539.051 58.4333 540.518 57.3C541.985 56.1 542.718 54.4667 542.718 52.4C542.718 50.6667 542.118 49.2333 540.918 48.1C539.785 46.9667 538.351 46.0333 536.618 45.3C534.951 44.5667 532.551 43.7333 529.418 42.8C524.885 41.4 521.185 40 518.318 38.6C515.451 37.2 512.985 35.1333 510.918 32.4C508.851 29.6667 507.818 26.1 507.818 21.7C507.818 15.1667 510.185 10.0667 514.918 6.4C519.651 2.66667 525.818 0.799999 533.418 0.799999C541.151 0.799999 547.385 2.66667 552.118 6.4C556.851 10.0667 559.385 15.2 559.718 21.8H541.218C541.085 19.5333 540.251 17.7667 538.718 16.5C537.185 15.1667 535.218 14.5 532.818 14.5C530.751 14.5 529.085 15.0667 527.818 16.2C526.551 17.2667 525.918 18.8333 525.918 20.9C525.918 23.1667 526.985 24.9333 529.118 26.2C531.251 27.4667 534.585 28.8333 539.118 30.3C543.651 31.8333 547.318 33.3 550.118 34.7C552.985 36.1 555.451 38.1333 557.518 40.8C559.585 43.4667 560.618 46.9 560.618 51.1C560.618 55.1 559.585 58.7333 557.518 62C555.518 65.2667 552.585 67.8667 548.718 69.8C544.851 71.7333 540.285 72.7 535.018 72.7Z" 
    fill="#32aec3"/>

</svg>
