<svg width="350" height="73" viewBox="0 0 350 73" fill="none" xmlns="http://www.w3.org/2000/svg">
    <path d="M27.6 72.7C22.4667 72.7 17.8667 71.8667 13.8 70.2C9.73333 68.5333 6.46667 66.0667 4 62.8C1.6 59.5333 0.333334 55.6 0.2 51H18.4C18.6667 53.6 19.5667 55.6 21.1 57C22.6333 58.3333 24.6333 59 27.1 59C29.6333 59 31.6333 58.4333 33.1 57.3C34.5667 56.1 35.3 54.4667 35.3 52.4C35.3 50.6667 34.7 49.2333 33.5 48.1C32.3667 46.9667 30.9333 46.0333 29.2 45.3C27.5333 44.5667 25.1333 43.7333 22 42.8C17.4667 41.4 13.7667 40 10.9 38.6C8.03333 37.2 5.56667 35.1333 3.5 32.4C1.43333 29.6667 0.4 26.1 0.4 21.7C0.4 15.1667 2.76667 10.0667 7.5 6.4C12.2333 2.66667 18.4 0.799999 26 0.799999C33.7333 0.799999 39.9667 2.66667 44.7 6.4C49.4333 10.0667 51.9667 15.2 52.3 21.8H33.8C33.6667 19.5333 32.8333 17.7667 31.3 16.5C29.7667 15.1667 27.8 14.5 25.4 14.5C23.3333 14.5 21.6667 15.0667 20.4 16.2C19.1333 17.2667 18.5 18.8333 18.5 20.9C18.5 23.1667 19.5667 24.9333 21.7 26.2C23.8333 27.4667 27.1667 28.8333 31.7 30.3C36.2333 31.8333 39.9 33.3 42.7 34.7C45.5667 36.1 48.0333 38.1333 50.1 40.8C52.1667 43.4667 53.2 46.9 53.2 51.1C53.2 55.1 52.1667 58.7333 50.1 62C48.1 65.2667 45.1667 67.8667 41.3 69.8C37.4333 71.7333 32.8667 72.7 27.6 72.7ZM112.423 72L88.8234 41V72H71.7234V1.8H88.8234V32.6L112.223 1.8H132.323L105.123 36.2L133.323 72H112.423ZM166.55 1.8V72H149.45V1.8H166.55ZM204.042 58.8H226.442V72H186.942V1.8H204.042V58.8ZM259.698 58.8H282.098V72H242.598V1.8H259.698V58.8ZM323.655 72.7C318.521 72.7 313.921 71.8667 309.855 70.2C305.788 68.5333 302.521 66.0667 300.055 62.8C297.655 59.5333 296.388 55.6 296.255 51H314.455C314.721 53.6 315.621 55.6 317.155 57C318.688 58.3333 320.688 59 323.155 59C325.688 59 327.688 58.4333 329.155 57.3C330.621 56.1 331.355 54.4667 331.355 52.4C331.355 50.6667 330.755 49.2333 329.555 48.1C328.421 46.9667 326.988 46.0333 325.255 45.3C323.588 44.5667 321.188 43.7333 318.055 42.8C313.521 41.4 309.821 40 306.955 38.6C304.088 37.2 301.621 35.1333 299.555 32.4C297.488 29.6667 296.455 26.1 296.455 21.7C296.455 15.1667 298.821 10.0667 303.555 6.4C308.288 2.66667 314.455 0.799999 322.055 0.799999C329.788 0.799999 336.021 2.66667 340.755 6.4C345.488 10.0667 348.021 15.2 348.355 21.8H329.855C329.721 19.5333 328.888 17.7667 327.355 16.5C325.821 15.1667 323.855 14.5 321.455 14.5C319.388 14.5 317.721 15.0667 316.455 16.2C315.188 17.2667 314.555 18.8333 314.555 20.9C314.555 23.1667 315.621 24.9333 317.755 26.2C319.888 27.4667 323.221 28.8333 327.755 30.3C332.288 31.8333 335.955 33.3 338.755 34.7C341.621 36.1 344.088 38.1333 346.155 40.8C348.221 43.4667 349.255 46.9 349.255 51.1C349.255 55.1 348.221 58.7333 346.155 62C344.155 65.2667 341.221 67.8667 337.355 69.8C333.488 71.7333 328.921 72.7 323.655 72.7Z" 
        fill="#32aec3"/>
</svg>
