<svg width="1440" height="304" viewBox="0 0 1440 304" fill="none" xmlns="http://www.w3.org/2000/svg">
<path d="M-295.074 10.7896L2215.24 1.30015L2309.62 0.943359L2310.41 208.424C2216.32 287.655 1991.53 280.653 1920.91 254.124C1848.94 227.085 1686.02 195.294 1570.21 255.449C1454.4 315.605 1316.69 308.788 1279.37 286.306C1142.55 203.88 1053.93 206.651 968.276 226.337C882.622 246.024 781.458 285.742 697.401 269.551C587.359 251.42 499.034 251.754 415.11 270.618C310.35 294.166 265.318 274.445 234.019 241.342C210.463 194.961 202.668 194.583 72.8623 216.882C3.65621 235.079 -35.4613 195.279 -143.639 212.401C-271.028 232.564 -293.043 166.089 -294.553 148.566L-295.074 10.7896Z" fill="url(#paint0_linear_32_23)" stroke="#D4F0F7"/>
<defs>
<linearGradient id="paint0_linear_32_23" x1="1007.28" y1="5.86647" x2="1008.4" y2="303.919" gradientUnits="userSpaceOnUse">
<stop stop-color="#D4F0F7"/>
<stop offset="1" stop-color="white"/>
</linearGradient>
</defs>
</svg>
